<?xml version="1.0" encoding="UTF-8"?>
<svg id="Layer_1" data-name="Layer 1" xmlns="http://www.w3.org/2000/svg" viewBox="0 0 500 500">
  <defs>
    <style>
      .cls-1 {
        fill: #29437f;
      }

      .cls-2 {
        fill: #f1f2f2;
      }
    </style>
  </defs>
  <rect class="cls-2" x="-15.5" y="-11" width="531" height="522"/>
  <g>
    <polygon class="cls-1" points="344.61 321.78 345.27 322.77 360.12 345.04 262.58 442.58 206.39 386.39 88.89 268.89 70 250 104.18 215.82 141.97 178.03 262.58 57.42 360.28 155.12 345.04 178.03 344.79 178.4 343.65 180.11 341.57 178.03 262.58 99.04 111.62 250 130.52 268.89 146.61 284.99 184.4 322.77 223.03 361.4 262.58 400.96 340.76 322.77 343.47 320.07 344.61 321.78"/>
    <polygon class="cls-1" points="331.51 198.36 319.9 215.82 176.19 215.82 213.98 178.03 311.18 178.03 331.51 198.36"/>
    <polygon class="cls-1" points="343.65 180.11 341.57 178.03 345.04 178.03 344.79 178.4 343.65 180.11"/>
    <polygon class="cls-1" points="331.32 301.83 310.37 322.77 214.79 322.77 177 284.99 320.09 284.99 331.32 301.83"/>
    <path class="cls-1" d="M244.71,244.66c-.5-.17-1.13-.27-1.89-.27h-13.67v5.26h13.64c1.3,0,2.23-.28,2.8-.82,.09-.1,.21-.21,.31-.33,.31-.44,.47-.93,.47-1.47,0-1.14-.56-1.93-1.67-2.37Zm36.67,2.33c-.35-.88-.93-1.56-1.74-2.04-.62-.36-1.27-.55-1.98-.55h-11.77c-1.28,0-2.35,.55-3.2,1.63-.24,.34-.4,.64-.48,.89-.18,.41-.27,.92-.27,1.55v3.04c0,.83,.17,1.51,.51,2.05,.07,.2,.27,.48,.61,.85,.79,.8,1.75,1.2,2.87,1.2h11.7c1.3,0,2.36-.52,3.17-1.59,.24-.29,.42-.6,.55-.91,.18-.44,.27-1,.27-1.67v-2.84c0-.72-.08-1.26-.23-1.61Zm0,0c-.35-.88-.93-1.56-1.74-2.04-.62-.36-1.27-.55-1.98-.55h-11.77c-1.28,0-2.35,.55-3.2,1.63-.24,.34-.4,.64-.48,.89-.18,.41-.27,.92-.27,1.55v3.04c0,.83,.17,1.51,.51,2.05,.07,.2,.27,.48,.61,.85,.79,.8,1.75,1.2,2.87,1.2h11.7c1.3,0,2.36-.52,3.17-1.59,.24-.29,.42-.6,.55-.91,.18-.44,.27-1,.27-1.67v-2.84c0-.72-.08-1.26-.23-1.61Zm-36.67-2.33c-.5-.17-1.13-.27-1.89-.27h-13.67v5.26h13.64c1.3,0,2.23-.28,2.8-.82,.09-.1,.21-.21,.31-.33,.31-.44,.47-.93,.47-1.47,0-1.14-.56-1.93-1.67-2.37Zm0,0c-.5-.17-1.13-.27-1.89-.27h-13.67v5.26h13.64c1.3,0,2.23-.28,2.8-.82,.09-.1,.21-.21,.31-.33,.31-.44,.47-.93,.47-1.47,0-1.14-.56-1.93-1.67-2.37Zm36.67,2.33c-.35-.88-.93-1.56-1.74-2.04-.62-.36-1.27-.55-1.98-.55h-11.77c-1.28,0-2.35,.55-3.2,1.63-.24,.34-.4,.64-.48,.89-.18,.41-.27,.92-.27,1.55v3.04c0,.83,.17,1.51,.51,2.05,.07,.2,.27,.48,.61,.85,.79,.8,1.75,1.2,2.87,1.2h11.7c1.3,0,2.36-.52,3.17-1.59,.24-.29,.42-.6,.55-.91,.18-.44,.27-1,.27-1.67v-2.84c0-.72-.08-1.26-.23-1.61Zm0,0c-.35-.88-.93-1.56-1.74-2.04-.62-.36-1.27-.55-1.98-.55h-11.77c-1.28,0-2.35,.55-3.2,1.63-.24,.34-.4,.64-.48,.89-.18,.41-.27,.92-.27,1.55v3.04c0,.83,.17,1.51,.51,2.05,.07,.2,.27,.48,.61,.85,.79,.8,1.75,1.2,2.87,1.2h11.7c1.3,0,2.36-.52,3.17-1.59,.24-.29,.42-.6,.55-.91,.18-.44,.27-1,.27-1.67v-2.84c0-.72-.08-1.26-.23-1.61Zm-36.67-2.33c-.5-.17-1.13-.27-1.89-.27h-13.67v5.26h13.64c1.3,0,2.23-.28,2.8-.82,.09-.1,.21-.21,.31-.33,.31-.44,.47-.93,.47-1.47,0-1.14-.56-1.93-1.67-2.37Zm147.89-13.56H168.86l-26.85,18.89,26.85,18.89H430l-37.4-37.79Zm-173.28,13.01h-21.14v3.36h14.8v5.04h-14.78v3.57h21.11s.02,0,.02,0v3.36c0,.51-.19,.99-.57,1.43-.23,.24-.4,.37-.49,.42-.34,.21-.75,.31-1.23,.31h-22.75c-.16,0-.37-.04-.64-.13-.57-.21-.99-.59-1.27-1.13-.13-.31-.2-.65-.2-1.01v-11.73c0-.56-.02-2.41-.02-5.54v-1.54c0-.37,.12-.75,.35-1.15,.25-.36,.54-.62,.87-.79,.25-.1,.43-.17,.55-.18,.07-.02,.16-.04,.29-.05h22.83c.72,0,1.31,.27,1.77,.82,.22,.23,.36,.54,.46,.93,.03,.13,.05,.32,.05,.57v3.42Zm32.39,8.05c-.31,.34-.57,.59-.79,.75-.49,.42-.93,.72-1.3,.91-2.01,1.17-4.43,1.76-7.27,1.76l-12.86,.07h-.35v3.79c0,.71-.31,1.31-.95,1.8-.39,.26-.82,.38-1.3,.38h-3.75v-21.1c0-.61,.27-1.17,.82-1.66,.41-.32,.85-.48,1.33-.48h17.06c3,0,5.52,.65,7.54,1.95,.35,.2,.73,.48,1.14,.85,1.66,1.57,2.49,3.53,2.49,5.89,0,1.98-.6,3.68-1.8,5.1Zm35.92-.55c0,2.46-.8,4.64-2.39,6.55-.49,.55-.91,.94-1.23,1.17-.55,.47-1.13,.85-1.72,1.16-1.44,.75-2.97,1.13-4.57,1.13h-11.91c-2.15,0-4.12-.66-5.93-1.98-.3-.24-.73-.62-1.27-1.15-.54-.59-.92-1.07-1.12-1.43-1.05-1.64-1.59-3.43-1.59-5.37v-3.36c0-2.28,.73-4.35,2.19-6.21,.21-.24,.55-.62,1.03-1.13,.47-.42,.88-.72,1.23-.92,1.7-1.12,3.5-1.68,5.42-1.68h11.96c2.01,0,3.89,.61,5.64,1.81,.29,.18,.66,.47,1.09,.87,.07,.06,.13,.11,.21,.18,.55,.63,.95,1.1,1.19,1.43,1.17,1.73,1.76,3.63,1.76,5.71v3.23Zm33.74,7.76c0,.74-.31,1.37-.95,1.87-.17,.11-.37,.21-.62,.28-.15,.07-.44,.09-.85,.09h-3.52c-.13,0-1.14-.81-3.04-2.42-1.89-1.61-4.02-3.45-6.37-5.52-2.35-2.06-4.45-3.9-6.28-5.52l-2.73-2.4v15.86h-3.66c-.55,0-1-.1-1.34-.33-.41-.28-.7-.66-.88-1.13-.09-.24-.13-.48-.13-.76v-18.75c0-.76,.3-1.37,.92-1.82,.37-.3,.82-.45,1.33-.45h3.76c.12,0,1.12,.81,3,2.42,1.88,1.6,4,3.45,6.35,5.51,2.35,2.07,4.44,3.91,6.27,5.52l2.73,2.42v-15.86h3.76c.79,0,1.41,.3,1.85,.93,.27,.38,.4,.81,.4,1.28v18.78Zm12.44,2.25h-5.02c-.55,0-1.06-.23-1.54-.68-.41-.42-.62-.96-.62-1.6v-20.95h4.89c.87,0,1.55,.37,2,1.13,.19,.32,.28,.72,.28,1.21v20.91Zm32.75,0h-7.68c-.69,0-1.28-.29-1.78-.88l-5.74-6.12c-3.83,4.1-5.85,6.26-6.06,6.46-.4,.37-.87,.55-1.43,.55h-7.68s.04-.04,.06-.06c0-.02,.03-.04,.05-.06l.08-.08s.06-.07,.09-.1c.04-.05,.09-.09,.13-.15,.06-.06,.11-.11,.17-.19,.06-.07,.13-.13,.21-.22,.08-.09,.16-.18,.26-.28,.09-.1,.2-.22,.32-.33,.11-.12,.24-.26,.37-.41,.13-.14,.28-.29,.43-.46,.15-.16,.31-.33,.49-.52s.37-.4,.57-.61c.2-.22,.41-.45,.64-.69,.23-.24,.47-.48,.72-.76,.25-.27,.51-.55,.8-.85s.58-.63,.89-.95c.31-.33,.65-.67,.99-1.04,.34-.37,.7-.76,1.08-1.16,.38-.41,.78-.83,1.19-1.26,.04-.02,.47-.5,1.34-1.43l-10.9-11.63h7.64c.69,0,1.26,.26,1.72,.78l5.88,6.26,5.57-5.93,.51-.55c.4-.37,.88-.55,1.43-.55h7.68l-10.9,11.63,10.87,11.61Zm-86.92-16.67c-.62-.36-1.27-.55-1.98-.55h-11.77c-1.28,0-2.35,.55-3.2,1.63-.24,.34-.4,.64-.48,.89-.18,.41-.27,.92-.27,1.55v3.04c0,.83,.17,1.51,.51,2.05,.07,.2,.27,.48,.61,.85,.79,.8,1.75,1.2,2.87,1.2h11.7c1.3,0,2.36-.52,3.17-1.59,.24-.29,.42-.6,.55-.91,.18-.44,.27-1,.27-1.67v-2.84c0-.72-.08-1.26-.23-1.61-.35-.88-.93-1.56-1.74-2.04Zm-34.93-.28c-.5-.17-1.13-.27-1.89-.27h-13.67v5.26h13.64c1.3,0,2.23-.28,2.8-.82,.09-.1,.21-.21,.31-.33,.31-.44,.47-.93,.47-1.47,0-1.14-.56-1.93-1.67-2.37Zm0,0c-.5-.17-1.13-.27-1.89-.27h-13.67v5.26h13.64c1.3,0,2.23-.28,2.8-.82,.09-.1,.21-.21,.31-.33,.31-.44,.47-.93,.47-1.47,0-1.14-.56-1.93-1.67-2.37Zm36.67,2.33c-.35-.88-.93-1.56-1.74-2.04-.62-.36-1.27-.55-1.98-.55h-11.77c-1.28,0-2.35,.55-3.2,1.63-.24,.34-.4,.64-.48,.89-.18,.41-.27,.92-.27,1.55v3.04c0,.83,.17,1.51,.51,2.05,.07,.2,.27,.48,.61,.85,.79,.8,1.75,1.2,2.87,1.2h11.7c1.3,0,2.36-.52,3.17-1.59,.24-.29,.42-.6,.55-.91,.18-.44,.27-1,.27-1.67v-2.84c0-.72-.08-1.26-.23-1.61Zm0,0c-.35-.88-.93-1.56-1.74-2.04-.62-.36-1.27-.55-1.98-.55h-11.77c-1.28,0-2.35,.55-3.2,1.63-.24,.34-.4,.64-.48,.89-.18,.41-.27,.92-.27,1.55v3.04c0,.83,.17,1.51,.51,2.05,.07,.2,.27,.48,.61,.85,.79,.8,1.75,1.2,2.87,1.2h11.7c1.3,0,2.36-.52,3.17-1.59,.24-.29,.42-.6,.55-.91,.18-.44,.27-1,.27-1.67v-2.84c0-.72-.08-1.26-.23-1.61Zm-36.67-2.33c-.5-.17-1.13-.27-1.89-.27h-13.67v5.26h13.64c1.3,0,2.23-.28,2.8-.82,.09-.1,.21-.21,.31-.33,.31-.44,.47-.93,.47-1.47,0-1.14-.56-1.93-1.67-2.37Zm0,0c-.5-.17-1.13-.27-1.89-.27h-13.67v5.26h13.64c1.3,0,2.23-.28,2.8-.82,.09-.1,.21-.21,.31-.33,.31-.44,.47-.93,.47-1.47,0-1.14-.56-1.93-1.67-2.37Zm0,0c-.5-.17-1.13-.27-1.89-.27h-13.67v5.26h13.64c1.3,0,2.23-.28,2.8-.82,.09-.1,.21-.21,.31-.33,.31-.44,.47-.93,.47-1.47,0-1.14-.56-1.93-1.67-2.37Z"/>
  </g>
</svg>